<svg viewBox="0 0 280 280" fill="none" preserveAspectRatio="xMidYMid meet" xmlns="http://www.w3.org/2000/svg">
<path d="M0 268.947H58.0964V280H0V268.947Z" fill="black"/>
<path d="M259.352 266.842H230.428L224.91 280H210.136L237.903 218.597H252.143L280 280H264.87L259.352 266.842ZM254.813 256.053L244.934 232.544L235.056 256.053H254.813Z" fill="black"/>
<path d="M162.996 173.649L162.907 136.512L144.573 167.106H138.077L119.832 137.308V173.649H106.304V111.754H118.23L141.547 150.218L164.509 111.754H176.346L176.524 173.649H162.996Z" fill="black"/>
<path d="M237.33 0H251.748V61.8947H237.33V0Z" fill="black"/>
<path d="M153.414 61.8947L141.399 44.6526H128.138V61.8947H113.721V0H140.687C146.205 0 150.981 0.913685 155.016 2.74105C159.11 4.56842 162.255 7.16211 164.45 10.5221C166.645 13.8821 167.743 17.8611 167.743 22.459C167.743 27.0568 166.616 31.0358 164.361 34.3958C162.166 37.6968 159.021 40.2316 154.927 42L168.9 61.8947H153.414ZM153.147 22.459C153.147 18.9811 152.02 16.3284 149.765 14.5011C147.511 12.6147 144.218 11.6716 139.886 11.6716H128.138V33.2463H139.886C144.218 33.2463 147.511 32.3032 149.765 30.4168C152.02 28.5305 153.147 25.8779 153.147 22.459Z" fill="black"/>
<path d="M29.4387 0C34.9566 0 39.7329 0.913685 43.7675 2.74105C47.8614 4.56842 51.006 7.16211 53.2013 10.5221C55.3966 13.8821 56.4943 17.8611 56.4943 22.459C56.4943 26.9979 55.3966 30.9768 53.2013 34.3958C51.006 37.7558 47.8614 40.3495 43.7675 42.1768C39.7329 43.9453 34.9566 44.8295 29.4387 44.8295H16.8898V61.8947H2.47205V0H29.4387ZM28.6377 33.1579C32.9689 33.1579 36.2619 32.2442 38.5165 30.4168C40.7712 28.5305 41.8985 25.8779 41.8985 22.459C41.8985 18.9811 40.7712 16.3284 38.5165 14.5011C36.2619 12.6147 32.9689 11.6716 28.6377 11.6716H16.8898V33.1579H28.6377Z" fill="black"/>
<path d="M29.0729 174.543C24.1483 174.543 19.372 173.895 14.7441 172.598C10.1755 171.242 6.49688 169.503 3.70825 167.381L8.60318 156.594C11.2731 158.539 14.4474 160.101 18.126 161.28C21.8047 162.459 25.4833 163.048 29.1619 163.048C33.2558 163.048 36.2818 162.459 38.2398 161.28C40.1977 160.042 41.1767 158.421 41.1767 156.417C41.1767 154.943 40.5834 153.735 39.3967 152.792C38.2694 151.789 36.7861 150.994 34.9468 150.404C33.1668 149.815 30.7342 149.166 27.6489 148.459C22.9023 147.339 19.016 146.219 15.9901 145.099C12.9641 143.979 10.3535 142.181 8.15819 139.705C6.02222 137.229 4.95423 133.928 4.95423 129.802C4.95423 126.206 5.93322 122.964 7.89119 120.076C9.84916 117.128 12.7861 114.8 16.7021 113.091C20.6773 111.381 25.5129 110.526 31.2089 110.526C35.1841 110.526 39.0704 110.998 42.8677 111.941C46.665 112.884 49.9876 114.24 52.8356 116.008L48.3856 126.884C42.6304 123.642 36.8751 122.021 31.1199 122.021C27.0853 122.021 24.089 122.669 22.131 123.966C20.2324 125.263 19.283 126.973 19.283 129.095C19.283 131.217 20.3807 132.808 22.576 133.869C24.8306 134.872 28.2422 135.874 32.8108 136.876C37.5574 137.996 41.4437 139.116 44.4697 140.236C47.4956 141.356 50.0766 143.124 52.2126 145.541C54.4079 147.958 55.5055 151.229 55.5055 155.356C55.5055 158.893 54.4969 162.135 52.4796 165.082C50.5216 167.971 47.555 170.269 43.5797 171.979C39.6044 173.688 34.7688 174.543 29.0729 174.543Z" fill="black"/>
</svg>
