<svg viewBox="0 0 48 59" fill="none" xmlns="http://www.w3.org/2000/svg">
<path d="M0 56.0395H15.5615V59H0V56.0395Z" fill="white"/>
<path d="M43.6597 46.5132L43.6359 36.5658L38.7251 44.7605H36.9848L32.0979 36.7789V46.5132H28.4744V29.9342H31.6688L37.9146 40.2368L44.065 29.9342H47.2356L47.2833 46.5132H43.6597Z" fill="white"/>
<path d="M41.093 16.5789L37.8747 11.9605H34.3227V16.5789H30.4608V0H37.684C39.162 0 40.4414 0.244737 41.5221 0.734211C42.6187 1.22369 43.461 1.91842 44.049 2.81842C44.637 3.71842 44.9311 4.78421 44.9311 6.01579C44.9311 7.24737 44.6291 8.31316 44.0252 9.21316C43.4371 10.0974 42.5948 10.7763 41.4982 11.25L45.241 16.5789H41.093ZM41.0215 6.01579C41.0215 5.08421 40.7195 4.37369 40.1156 3.88421C39.5117 3.37895 38.6296 3.12632 37.4695 3.12632H34.3227V8.90526H37.4695C38.6296 8.90526 39.5117 8.65263 40.1156 8.14737C40.7195 7.64211 41.0215 6.93158 41.0215 6.01579Z" fill="white"/>
<path d="M7.88543 0C9.36345 0 10.6428 0.244737 11.7235 0.734211C12.8201 1.22369 13.6624 1.91842 14.2504 2.81842C14.8385 3.71842 15.1325 4.78421 15.1325 6.01579C15.1325 7.23158 14.8385 8.29737 14.2504 9.21316C13.6624 10.1132 12.8201 10.8079 11.7235 11.2974C10.6428 11.7711 9.36345 12.0079 7.88543 12.0079H4.52414V16.5789H0.662231V0H7.88543ZM7.67088 8.88158C8.83104 8.88158 9.71309 8.63684 10.317 8.14737C10.9209 7.64211 11.2229 6.93158 11.2229 6.01579C11.2229 5.08421 10.9209 4.37369 10.317 3.88421C9.71309 3.37895 8.83104 3.12632 7.67088 3.12632H4.52414V8.88158H7.67088Z" fill="white"/>
<path d="M7.78739 46.7526C6.4683 46.7526 5.18894 46.5789 3.94932 46.2315C2.72558 45.8684 1.74024 45.4026 0.993286 44.8342L2.30443 41.9447C3.0196 42.4658 3.86985 42.8842 4.8552 43.2C5.84054 43.5158 6.82588 43.6736 7.81122 43.6736C8.90782 43.6736 9.71834 43.5158 10.2428 43.2C10.7673 42.8684 11.0295 42.4342 11.0295 41.8973C11.0295 41.5026 10.8706 41.1789 10.5527 40.9263C10.2507 40.6579 9.85343 40.4447 9.36076 40.2868C8.88398 40.1289 8.23238 39.9552 7.40596 39.7658C6.13455 39.4658 5.09359 39.1658 4.28306 38.8658C3.47254 38.5658 2.77326 38.0842 2.18523 37.421C1.6131 36.7579 1.32703 35.8736 1.32703 34.7684C1.32703 33.8052 1.58926 32.9368 2.11372 32.1631C2.63817 31.3736 3.42486 30.75 4.47377 30.2921C5.53858 29.8342 6.83383 29.6052 8.35952 29.6052C9.42433 29.6052 10.4653 29.7315 11.4824 29.9842C12.4996 30.2368 13.3895 30.6 14.1524 31.0736L12.9604 33.9868C11.4189 33.1184 9.87727 32.6842 8.33568 32.6842C7.25498 32.6842 6.4524 32.8579 5.92795 33.2052C5.41938 33.5526 5.1651 34.0105 5.1651 34.5789C5.1651 35.1473 5.45912 35.5736 6.04714 35.8579C6.65106 36.1263 7.56489 36.3947 8.78862 36.6631C10.06 36.9631 11.101 37.2631 11.9115 37.5631C12.722 37.8631 13.4134 38.3368 13.9855 38.9842C14.5735 39.6315 14.8676 40.5079 14.8676 41.6131C14.8676 42.5605 14.5974 43.4289 14.057 44.2184C13.5326 44.9921 12.7379 45.6079 11.6731 46.0658C10.6083 46.5236 9.31308 46.7526 7.78739 46.7526Z" fill="white"/>
</svg>
